<?xml version="1.0" standalone="no"?>
<!DOCTYPE svg PUBLIC "-//W3C//DTD SVG 20010904//EN"
 "http://www.w3.org/TR/2001/REC-SVG-20010904/DTD/svg10.dtd">
<svg version="1.0" xmlns="http://www.w3.org/2000/svg"
 width="300.000000pt" height="348.000000pt" viewBox="0 0 300.000000 348.000000"
 preserveAspectRatio="xMidYMid meet">
<metadata>
Created by potrace 1.10, written by Peter Selinger 2001-2011
</metadata>
<g transform="translate(0.000000,348.000000) scale(0.100000,-0.100000)"
fill="#000000" stroke="none">
<path d="M157 3466 c-66 -18 -97 -43 -127 -102 l-25 -49 -3 -1260 c-2 -693 0
-1288 3 -1322 7 -69 32 -115 81 -148 18 -12 330 -147 695 -300 598 -252 669
-279 719 -279 49 0 121 27 704 272 356 150 665 281 686 292 44 22 87 70 98
108 4 15 7 614 7 1332 l0 1305 -25 50 c-29 58 -71 89 -141 104 -79 17 -2609
14 -2672 -3z m2290 -464 c87 -46 103 -95 103 -318 l0 -174 -100 0 -100 0 0
154 c0 149 -1 155 -22 170 -33 23 -113 21 -138 -4 -19 -19 -20 -33 -20 -478 0
-369 3 -462 14 -477 21 -28 114 -33 146 -7 25 20 25 23 28 191 l3 171 100 0
99 0 0 -172 c0 -95 -5 -193 -11 -218 -15 -66 -51 -114 -106 -141 -43 -22 -61
-24 -183 -24 -122 0 -140 2 -183 24 -57 28 -92 75 -107 147 -7 33 -10 214 -8
535 l3 485 25 48 c49 95 105 117 285 113 111 -2 136 -6 172 -25z m-1552 -77
l0 -90 -122 -3 -123 -3 0 -184 0 -184 118 -3 117 -3 3 -92 3 -93 -121 0 -120
0 0 -200 0 -200 125 0 125 0 0 -95 0 -95 -230 0 -230 0 0 670 0 670 228 -2
227 -3 0 -90z m545 71 c56 -29 88 -66 105 -117 14 -40 16 -91 13 -306 l-3
-258 -27 -47 c-43 -72 -104 -98 -230 -98 l-98 0 0 -245 0 -246 -102 3 -103 3
-2 655 c-2 360 -1 661 2 668 4 11 45 13 208 10 173 -3 207 -6 237 -22z m418
-643 l-3 -668 -102 -3 -103 -3 0 671 0 670 105 0 105 0 -2 -667z m-1086 -1015
c21 -12 38 -24 38 -28 0 -3 -14 -22 -30 -42 l-31 -37 -32 19 c-50 31 -93 26
-133 -14 -83 -83 -10 -216 106 -191 25 5 30 11 30 36 0 27 -2 29 -40 29 -40 0
-40 0 -40 40 l0 40 95 0 96 0 -3 -92 -3 -93 -54 -27 c-146 -74 -317 2 -329
146 -7 84 4 123 50 172 69 75 189 93 280 42z m1736 2 c23 -10 42 -21 42 -25 0
-12 -46 -75 -55 -75 -5 1 -21 7 -35 15 -14 8 -44 14 -67 15 -36 0 -43 -3 -43
-20 0 -23 18 -33 89 -50 31 -7 67 -25 87 -42 30 -26 34 -36 34 -78 0 -90 -68
-137 -184 -128 -57 5 -137 35 -151 57 -3 6 7 24 23 42 l29 32 46 -22 c59 -29
121 -26 125 5 3 23 -18 35 -101 55 -68 17 -107 56 -107 109 0 95 66 145 175
134 28 -3 69 -14 93 -24z m-1281 -180 c45 -107 83 -198 83 -202 0 -5 -25 -8
-55 -8 -55 0 -55 0 -71 40 l-16 40 -79 0 -79 0 -16 -40 c-16 -40 -16 -40 -71
-40 -40 0 -54 3 -51 13 2 7 39 100 83 205 l80 192 55 -2 55 -3 82 -195z m291
123 c24 -40 47 -73 50 -73 4 0 27 34 52 75 l45 75 58 0 57 0 -2 -202 -3 -203
-50 0 -50 0 -5 115 -5 115 -49 -79 -49 -78 -51 78 -51 79 -3 -117 -3 -118 -49
0 -50 0 0 205 0 206 57 -3 57 -3 44 -72z m662 32 l0 -45 -105 0 -105 0 0 -35
0 -35 96 0 95 0 -3 -42 -3 -43 -92 -3 -93 -3 0 -29 0 -30 105 0 105 0 0 -50 0
-50 -160 0 -160 0 0 205 0 205 160 0 160 0 0 -45z m-113 -841 c-3 -3 -134 -48
-292 -99 l-287 -93 -276 95 c-153 52 -279 97 -281 99 -2 2 254 4 569 4 315 0
571 -3 567 -6z"/>
<path d="M1200 2595 l0 -245 58 0 c98 0 97 -5 100 234 l3 206 -25 25 c-21 21
-35 25 -81 25 l-55 0 0 -245z"/>
<path d="M1066 1177 c-9 -23 -16 -46 -16 -50 0 -4 18 -7 41 -7 29 0 40 4 36
13 -2 6 -10 29 -18 50 -7 20 -16 37 -20 37 -3 0 -14 -19 -23 -43z"/>
</g>
</svg>
